<svg id="_1" data-name="1" xmlns="http://www.w3.org/2000/svg" width="120" height="131" viewBox="0 0 120 131">
  <metadata><?xpacket begin="﻿" id="W5M0MpCehiHzreSzNTczkc9d"?>
<x:xmpmeta xmlns:x="adobe:ns:meta/" x:xmptk="Adobe XMP Core 5.6-c138 79.159824, 2016/09/14-01:09:01        ">
   <rdf:RDF xmlns:rdf="http://www.w3.org/1999/02/22-rdf-syntax-ns#">
      <rdf:Description rdf:about=""/>
   </rdf:RDF>
</x:xmpmeta>

                           
<?xpacket end="w"?></metadata>
<defs>
    <style>
      .cls-1 {
        fill: #0f0122;
      }

      .cls-2 {
        fill: #ff7c0c;
      }

      .cls-3 {
        fill: #fff;
        stroke: #0f0122;
        stroke-width: 4px;
      }
    </style>
  </defs>
  <rect id="Прямоугольник_1" data-name="Прямоугольник 1" class="cls-1" x="34" y="93" width="4" height="38"/>
  <rect id="Прямоугольник_1_копия" data-name="Прямоугольник 1 копия" class="cls-1" x="84" y="93" width="4" height="38"/>
  <path id="Прямоугольник_3" data-name="Прямоугольник 3" class="cls-2" d="M25,0H95a10,10,0,0,1,10,10V82a0,0,0,0,1,0,0H15a0,0,0,0,1,0,0V10A10,10,0,0,1,25,0Z"/>
  <rect id="Прямоугольник_2" data-name="Прямоугольник 2" class="cls-3" x="2" y="81" width="116" height="13" rx="6.5" ry="6.5"/>
  <rect id="Прямоугольник_1_копия_2" data-name="Прямоугольник 1 копия 2" class="cls-1" x="36" y="14" width="4" height="54"/>
  <rect id="Прямоугольник_1_копия_3" data-name="Прямоугольник 1 копия 3" class="cls-1" x="47" y="14" width="4" height="54"/>
  <rect id="Прямоугольник_4" data-name="Прямоугольник 4" class="cls-1" x="56" y="47" width="4" height="4"/>
  <rect id="Прямоугольник_4_копия" data-name="Прямоугольник 4 копия" class="cls-1" x="56" y="55" width="4" height="4"/>
  <rect id="Прямоугольник_4_копия_2" data-name="Прямоугольник 4 копия 2" class="cls-1" x="56" y="64" width="4" height="4"/>
</svg>
