<?xml version="1.0" encoding="utf-8"?>
<!-- Generator: Adobe Illustrator 21.0.1, SVG Export Plug-In . SVG Version: 6.00 Build 0)  -->
<svg version="1.1" id="_3" xmlns="http://www.w3.org/2000/svg" xmlns:xlink="http://www.w3.org/1999/xlink" x="0px" y="0px"
	 viewBox="0 0 85 133" style="enable-background:new 0 0 85 133;" xml:space="preserve">
<style type="text/css">
	.st0{fill:#0F0122;}
	.st1{fill:#FFFFFF;stroke:#0F0122;stroke-width:4;}
	.st2{fill:#FF7C0C;}
</style>
<rect id="Прямоугольник_1_копия" x="19" y="95" class="st0" width="4" height="38"/>
<rect id="Прямоугольник_1_копия_4" x="28" y="95" class="st0" width="4" height="38"/>
<rect id="Прямоугольник_1_копия_5" x="52" y="95" class="st0" width="4" height="38"/>
<rect id="Прямоугольник_1_копия_6" x="61" y="95" class="st0" width="4" height="38"/>
<path id="Прямоугольник_2_копия" class="st1" d="M43,2L43,2c17.7,0,32,14.3,32,32v44l0,0H11l0,0V34
	C11,16.3,25.3,2,43,2z"/>
<path id="Фигура_1" class="st2" d="M53,74h9V54l-9,7V74z"/>
<path id="Фигура_2" class="st2" d="M21,74V38h41v7L30,70v4H21z"/>
<rect id="Прямоугольник_2" x="2" y="74" class="st1" width="81" height="21"/>
</svg>
